<svg height="512pt" viewBox="-26 0 512 512" width="512pt" xmlns="http://www.w3.org/2000/svg"><path d="m309.636719 482.613281h44.261719l-36.527344-144.683593h-45.578125l36.542969 144.75c.425781-.042969.863281-.066407 1.300781-.066407zm0 0" fill="#ac6a51"/><path d="m302.699219 337.929688h-30.90625l36.542969 144.75c.429687-.042969.863281-.066407 1.304687-.066407h29.585937zm0 0" fill="#945b44"/><path d="m147.625 337.929688c-.289062 5.144531-3.25 9.5625-7.460938 11.777343l-33.550781 132.90625h44.261719c.441406 0 .875.023438 1.304688.066407l36.539062-144.75zm0 0" fill="#ac6a51"/><path d="m137.523438 480.847656 33.550781-132.90625c3.71875-1.957031 6.457031-5.632812 7.246093-10.011718h-30.695312c-.289062 5.144531-3.25 9.5625-7.460938 11.777343l-33.550781 132.90625h44.261719c.441406 0 .875.023438 1.304688.066407l.460937-1.832032zm0 0" fill="#945b44"/><path d="m441.054688 0h-421.597657c-10.703125 0-19.457031 8.753906-19.457031 19.457031v301.863281c0 10.703126 8.753906 19.457032 19.457031 19.457032h32.789063c-.015625-.265625-.042969-.527344-.042969-.796875v-31.292969c0-3.859375 3.160156-7.019531 7.023437-7.019531h81.417969c3.863281 0 7.019531 3.160156 7.019531 7.019531v31.292969c0 .269531-.023437.53125-.039062.796875h293.429688c10.699218 0 19.457031-8.753906 19.457031-19.457032v-301.863281c0-10.703125-8.753907-19.457031-19.457031-19.457031zm0 0" fill="#bd7c63"/><path d="m32 321.320312v-301.863281c0-10.703125 8.753906-19.457031 19.457031-19.457031h-32c-10.703125 0-19.457031 8.753906-19.457031 19.457031v301.863281c0 10.703126 8.753906 19.457032 19.457031 19.457032h32c-10.703125 0-19.457031-8.753906-19.457031-19.457032zm0 0" fill="#ac6a51"/><path d="m421.824219 32h-383.136719c-3.691406 0-6.6875 2.996094-6.6875 6.6875v263.402344c0 3.691406 2.992188 6.6875 6.6875 6.6875h13.519531v-.089844c0-3.859375 3.160157-7.019531 7.019531-7.019531h81.417969c3.863281 0 7.023438 3.160156 7.023438 7.019531v.089844h274.15625c3.691406 0 6.6875-2.992188 6.6875-6.6875v-263.402344c0-3.691406-2.996094-6.6875-6.6875-6.6875zm0 0" fill="#43cd8e"/><path d="m62.90625 38.6875c0-3.691406 2.996094-6.6875 6.691406-6.6875h-30.910156c-3.691406 0-6.6875 2.996094-6.6875 6.6875v263.402344c0 3.695312 2.992188 6.6875 6.6875 6.6875h13.519531v-.089844c0-3.859375 3.160157-7.019531 7.019531-7.019531h3.679688zm0 0" fill="#00b965"/><path d="m361.75 480h-52.113281c-7.40625 0-13.410157 6.003906-13.410157 13.410156v5.179688c0 7.40625 6.003907 13.410156 13.410157 13.410156h52.113281c7.40625 0 13.410156-6.003906 13.410156-13.410156v-5.179688c0-7.40625-6.003906-13.410156-13.410156-13.410156zm0 0" fill="#945b44"/><path d="m150.875 480h-52.109375c-7.410156 0-13.414063 6.003906-13.414063 13.410156v5.179688c0 7.40625 6.003907 13.410156 13.414063 13.410156h52.109375c7.40625 0 13.410156-6.003906 13.410156-13.410156v-5.179688c0-7.40625-6.003906-13.410156-13.410156-13.410156zm0 0" fill="#945b44"/><path d="m328.3125 97.367188c0-4.269532-3.460938-7.726563-7.726562-7.726563h-113.851563c-3.402344 0-6.402344 2.222656-7.390625 5.480469l-38.507812 126.871094-23.636719-50.007813c-1.277344-2.699219-3.996094-4.425781-6.984375-4.425781h-33.128906c-4.265626 0-7.726563 3.460937-7.726563 7.726562 0 4.269532 3.457031 7.730469 7.726563 7.730469h28.234374l30.105469 63.695313c1.28125 2.714843 4.011719 4.425781 6.980469 4.425781.191406 0 .378906-.007813.570312-.019531 3.183594-.234376 5.898438-2.40625 6.828126-5.460938l42.660156-140.5625h108.121094c4.265624 0 7.726562-3.460938 7.726562-7.726562zm0 0" fill="#e6e2e6"/><path d="m288.011719 199.910156 38.035156-38.035156c3.019531-3.015625 3.019531-7.910156 0-10.925781-3.015625-3.015625-7.910156-3.015625-10.925781 0l-38.035156 38.035156-38.035157-38.035156c-3.019531-3.015625-7.910156-3.015625-10.929687 0-3.015625 3.015625-3.015625 7.910156 0 10.925781l38.035156 38.035156-38.035156 38.035156c-3.015625 3.019532-3.015625 7.910157 0 10.929688 1.511718 1.507812 3.488281 2.261719 5.464844 2.261719 1.976562 0 3.953124-.753907 5.464843-2.261719l38.035157-38.035156 38.035156 38.035156c1.511718 1.507812 3.488281 2.261719 5.464844 2.261719 1.976562 0 3.953124-.753907 5.464843-2.261719 3.015625-3.019531 3.015625-7.910156 0-10.929688zm0 0" fill="#e6e2e6"/><path d="m141.675781 300.636719h-83.476562c-3.863281 0-7.023438 3.160156-7.023438 7.019531v32.324219c0 7.480469 6.121094 13.597656 13.597657 13.597656h70.328124c7.476563 0 13.59375-6.121094 13.59375-13.597656v-32.324219c0-3.859375-3.160156-7.019531-7.019531-7.019531zm0 0" fill="#685e68"/><path d="m361.75 491.992188h-52.113281c-4.664063 0-8.769531-2.382813-11.167969-5.996094-1.414062 2.121094-2.242188 4.671875-2.242188 7.414062v5.179688c0 7.40625 6.003907 13.410156 13.410157 13.410156h52.113281c7.40625 0 13.410156-6.003906 13.410156-13.410156v-5.179688c0-2.742187-.828125-5.292968-2.238281-7.414062-2.402344 3.613281-6.507813 5.996094-11.171875 5.996094zm0 0" fill="#87523e"/><path d="m150.875 491.992188h-52.109375c-4.667969 0-8.769531-2.382813-11.171875-5.996094-1.414062 2.121094-2.242188 4.671875-2.242188 7.414062v5.179688c0 7.40625 6.003907 13.410156 13.414063 13.410156h52.109375c7.40625 0 13.410156-6.003906 13.410156-13.410156v-5.179688c0-2.742187-.824218-5.292968-2.238281-7.414062-2.402344 3.613281-6.507813 5.996094-11.171875 5.996094zm0 0" fill="#87523e"/><path d="m135.101562 323.183594h-70.328124c-7.480469 0-13.597657-6.117188-13.597657-13.59375v30.390625c0 7.480469 6.121094 13.597656 13.597657 13.597656h70.328124c7.476563 0 13.59375-6.121094 13.59375-13.597656v-30.390625c0 7.476562-6.117187 13.59375-13.59375 13.59375zm0 0" fill="#554e56"/></svg>