<svg viewBox="0 0 512 512" xmlns="http://www.w3.org/2000/svg"><path d="m512 210-256 302-1.53125-1.800781-254.46875-300.199219 113.488281-111.710938h285.023438zm0 0" fill="#00e8f2"/><path d="m512 210-256 302v-413.710938h142.511719zm0 0" fill="#00cef5"/><path d="m341.75 209.75h-171.5l84.21875-109.46875 1.53125-1.992188zm0 0" fill="#9cfdff"/><path d="m398.507812 98.289062-58.007812 111.460938h171.5zm0 0" fill="#00f8fe"/><path d="m113.492188 98.289062 58.007812 111.460938h-171.5zm0 0" fill="#9cfdff"/><path d="m241 0h30v62.160156h-30zm0 0" fill="#9cfdff"/><path d="m316.847656 63.503906 24.324219-58.273437 27.683594 11.558593-24.324219 58.269532zm0 0" fill="#00f8fe"/><path d="m143.136719 16.78125 27.683593-11.558594 24.324219 58.273438-27.683593 11.554687zm0 0" fill="#9cfdff"/><path d="m340.5 209.75-84.5 302.25-1.53125-5.46875-82.96875-296.78125zm0 0" fill="#00f8fe"/><path d="m256 0h15v62.160156h-15zm0 0" fill="#00f8fe"/><path d="m341.75 209.75h-1.25l-84.5 302.25v-413.710938zm0 0" fill="#9cfdff"/><path d="m341.75 209.75h-85.75v-111.460938zm0 0" fill="#00f8fe"/></svg>