<svg id="Capa_1" enable-background="new 0 0 512 512" height="512" viewBox="0 0 512 512" width="512" xmlns="http://www.w3.org/2000/svg"><g clip-rule="evenodd" fill-rule="evenodd"><path d="m386.583 184.763 52.011-27.004v-107.462l-60.67-20.107-50.548 20.107v107.462z" fill="#e0f7fe"/><path d="m353.528 390.568c8.542 5.377 18.634 8.505 29.457 8.505 30.569 0 55.609-24.988 55.609-55.557v-185.757c-14.275 7.599-27.819 0-27.819 0-14.275-7.569-27.79 0-27.79 0-14.275 7.599-27.819 0-27.819 0-14.275-7.569-27.79 0-27.79 0v118.246c-2.574 69.118-7.518 94.573 26.152 114.563z" fill="#bbec6a"/><path d="m327.376 73.911h71.669c17.786 0 16.528 12.83 16.528 29.372v56.405c5.09 1.578 13.602 2.835 22.466-1.637l.556-.292v-107.462h-111.219z" fill="#99e6fc"/><path d="m327.376 50.297h111.218 6.319c3.072 0 5.587-2.513 5.587-5.582v-39.133c0-3.069-2.516-5.582-5.587-5.582h-123.885c-3.072 0-5.587 2.513-5.587 5.582v39.133c0 3.069 2.516 5.582 5.587 5.582z" fill="#e0d2ce"/><path d="m404.808 50.297h33.787 6.319c3.072 0 5.587-2.513 5.587-5.582v-39.133c0-3.069-2.516-5.582-5.587-5.582h-40.105c3.072 0 5.587 2.513 5.587 5.582v35.363 3.77c-.001 3.069-2.517 5.582-5.588 5.582z" fill="#b8acac"/><path d="m382.985 399.073c30.569 0 55.609-24.988 55.609-55.557v-185.757c-.176.117-.38.205-.556.292-8.863 4.471-17.376 3.215-22.466 1.637v10.024 175.732c0 24.988-16.732 46.264-39.579 53.19 2.283.293 4.623.439 6.992.439z" fill="#97d729"/><path d="m201.21 378.615c59.266-11.076 97.82-13.327 151.821-41.968-4.271-20.867-13.164-42.318-25.654-60.643-14.392-21.101-33.582-38.022-56.048-45.182-5.47-1.724-10.209-3.244-10.209-6.839v-78.09l-51.075-20.107-53.737 20.078v78.09c0 3.566-4.739 5.114-10.209 6.839-42.036 13.356-72.517 60.964-81.702 105.796z" fill="#e0f7fe"/><path d="m166.692 58.48c9.712 0 17.61-7.891 17.61-17.594 0-9.732-7.898-17.594-17.61-17.594s-17.61 7.862-17.61 17.594c0 9.703 7.898 17.594 17.61 17.594z" fill="#ff8092"/><path d="m237.191 46.118c11.321 0 20.535-9.177 20.535-20.516 0-11.31-9.215-20.516-20.535-20.516-11.35 0-20.535 9.206-20.535 20.516-.001 11.339 9.185 20.516 20.535 20.516z" fill="#ff8092"/><path d="m156.307 145.864h104.812 4.095c3.072 0 5.587-2.513 5.587-5.582v-39.162c0-3.069-2.516-5.553-5.587-5.553h-113.002c-3.072 0-5.587 2.484-5.587 5.553v39.162c0 3.069 2.516 5.582 5.587 5.582z" fill="#e0d2ce"/><path d="m225.109 145.864h36.01 4.095c3.072 0 5.587-2.513 5.587-5.582v-39.162c0-3.069-2.516-5.553-5.587-5.553h-40.105c3.072 0 5.558 2.484 5.558 5.553v39.162c0 3.069-2.486 5.582-5.558 5.582z" fill="#b8acac"/><path d="m219.698 512c66.725-5.056 121.837-55.704 133.83-121.432 1.58-8.709 2.399-17.681 2.399-26.829 0-8.709-.995-17.827-2.896-27.092-36.975 19.61-68.217-.058-68.217-.058-37.063-19.698-68.158-7.452-80.678 0-37.034 19.698-67.573 0-67.573 0-37.034-19.698-65.73-8.738-72.166 0-1.901 9.264-2.896 18.412-2.896 27.121 0 78.353 60.699 142.562 136.287 148.29z" fill="#ff8092"/><path d="m156.307 178.947h48.969c22.027 0 20.155 4.939 20.155 25.572v45.387c0 3.273 4.3 4.647 9.273 6.225 35.717 11.369 62.279 49.917 72.4 88.232 5.587.935 11.994 1.344 18.985.614 8.308-.848 17.435-3.273 26.942-8.329-4.271-20.867-13.164-42.318-25.654-60.643-14.392-21.101-33.582-38.022-56.048-45.182-5.47-1.724-10.209-3.244-10.209-6.839v-78.09l-104.812-.029v33.082z" fill="#99e6fc"/><path d="m353.528 390.568c-.029 0-.029 0-.029 0s0 0 .029 0zm-133.83 121.432c66.725-5.056 121.837-55.704 133.83-121.432 1.58-8.709 2.399-17.681 2.399-26.829 0-8.709-.995-17.827-2.896-27.092-9.507 5.056-18.634 7.482-26.942 8.329-6.991.731-13.398.321-18.985-.614 2.925 11.076 4.476 22.153 4.476 32.528 0 70.053-53.386 127.686-120.52 134.437 2.223.263 4.476.497 6.728.672h21.91z" fill="#fe636e"/><g fill="#e0f7fe"><path d="m235.582 391.854c0 9.732 7.869 17.594 17.61 17.594 9.712 0 17.61-7.862 17.61-17.594 0-9.703-7.898-17.564-17.61-17.564-9.741 0-17.61 7.862-17.61 17.564z"/><path d="m170.495 432.711c11.321 0 20.535-9.177 20.535-20.516s-9.215-20.516-20.535-20.516c-11.35 0-20.535 9.177-20.535 20.516 0 11.34 9.185 20.516 20.535 20.516z"/><path d="m376.754 227.198c9.595 0 17.347-7.774 17.347-17.331s-7.752-17.331-17.347-17.331c-9.566 0-17.318 7.774-17.318 17.331s7.753 17.331 17.318 17.331z"/></g><path d="m376.754 227.198c9.595 0 17.347-7.774 17.347-17.331s-7.752-17.331-17.347-17.331c-2.194 0-4.3.409-6.231 1.169 1.141.438 2.252.994 3.276 1.666 4.71 3.098 7.81 8.446 7.81 14.496 0 6.693-3.774 12.479-9.332 15.373-.556.292-1.141.555-1.755.789 1.932.731 4.038 1.169 6.232 1.169z" fill="#99e6fc"/><path d="m389.947 295.732c9.566 0 17.347-7.745 17.347-17.301 0-9.586-7.781-17.331-17.347-17.331s-17.347 7.745-17.347 17.331c.001 9.556 7.782 17.301 17.347 17.301z" fill="#e0f7fe"/><path d="m389.947 295.732c9.566 0 17.347-7.745 17.347-17.301 0-9.586-7.781-17.331-17.347-17.331-2.194 0-4.3.409-6.231 1.169 1.141.438 2.223.994 3.247 1.666 4.71 3.098 7.84 8.417 7.84 14.496 0 6.663-3.803 12.479-9.332 15.373-.585.292-1.17.555-1.755.789 1.931.73 4.037 1.139 6.231 1.139z" fill="#99e6fc"/></g></svg>